<?xml version="1.0" encoding="UTF-8"?>
<svg id="Capa_1" xmlns="http://www.w3.org/2000/svg" version="1.1" viewBox="0 0 1138.49 1080">
  <!-- Generator: Adobe Illustrator 29.1.0, SVG Export Plug-In . SVG Version: 2.1.0 Build 142)  -->
  <defs>
    <style>
      .st0 {
        fill: #003660;
      }

      .st1 {
        fill: #d7ad78;
      }
    </style>
  </defs>
  <path class="st0" d="M921.57,240.61v640.86c0,31.67-25.67,57.34-57.34,57.34h-83.25v-289.09h-240.04v91.52h-126.46v-255.21l126.46-55.83v93.3h240.04V141.18l106.4,46.96c20.78,9.17,34.19,29.75,34.19,52.46Z"/>
  <path class="st1" d="M597.54,466.91v-62.41l-75.67-33.39-163.99,72.37v354.37h239.66v-91.52h126.84v232.49h-450.12c-31.67,0-57.34-25.67-57.34-57.34v-496.25c0-22.72,13.41-43.29,34.19-52.46l247.61-109.28c14.75-6.51,31.56-6.51,46.31,0l145.17,64.06c20.78,9.17,34.19,29.75,34.19,52.46v126.91h-126.84Z"/>
</svg>