<?xml version="1.0" encoding="UTF-8"?>
<svg id="Capa_1" xmlns="http://www.w3.org/2000/svg" version="1.1" viewBox="0 0 2000 656.32">
  <!-- Generator: Adobe Illustrator 29.1.0, SVG Export Plug-In . SVG Version: 2.1.0 Build 142)  -->
  <defs>
    <style>
      .st0 {
        fill: #003660;
      }

      .st1 {
        fill: #e0b784;
      }
    </style>
  </defs>
  <g>
    <path class="st0" d="M638.11,480.69h65.48v21.83c-12.25,2.3-27.68,3.46-46.32,3.46h-21.83c-22.01,0-38.11-4.96-48.31-14.91-10.21-9.94-15.31-26.18-15.31-48.72v-63.09c0-22.54,5.1-38.82,15.31-48.85,10.2-10.02,26.31-15.04,48.31-15.04h20.5c17.57,0,33.01,1.24,46.32,3.73v21.56h-64.15c-12.78,0-22.14,2.93-28.09,8.78-5.95,5.86-8.92,15.88-8.92,30.08v62.56c0,14.2,2.93,24.18,8.78,29.95,5.86,5.77,15.26,8.65,28.22,8.65Z"/>
    <path class="st0" d="M759.23,504.12h-27.95v-192.19h27.95v50.84c12.78-1.77,24.4-2.66,34.87-2.66h9.58c17.21,0,30.21,4.26,39,12.78,8.78,8.52,13.18,20.76,13.18,36.74v94.5h-27.95v-92.11c0-18.63-9.41-27.95-28.22-27.95h-10.38c-9.23,0-19.26.71-30.08,2.13v117.92Z"/>
    <path class="st0" d="M917.22,336.14c-3.11,3.02-7.23,4.53-12.38,4.53s-9.27-1.51-12.38-4.53c-3.11-3.01-4.66-6.74-4.66-11.18s1.55-8.16,4.66-11.18c3.1-3.01,7.23-4.52,12.38-4.52s9.27,1.51,12.38,4.52c3.1,3.02,4.66,6.75,4.66,11.18s-1.56,8.17-4.66,11.18ZM890.73,504.12v-142.15h27.95v142.15h-27.95Z"/>
    <path class="st0" d="M954.88,311.92h27.95v192.19h-27.95v-192.19Z"/>
    <path class="st0" d="M1138.29,410.41v33.54h-96.9v11.71c0,9.41,2.26,16.42,6.79,21.03,4.52,4.62,11.75,6.92,21.69,6.92h62.02v18.9c-13.84,2.3-31.41,3.46-52.71,3.46h-11.98c-35.85,0-53.77-16.68-53.77-50.04v-45.52c0-33.54,17.92-50.31,53.77-50.31h17.3c35.84,0,53.77,16.77,53.77,50.31ZM1041.39,409.62v12.78h68.95v-11.45c0-18.81-9.32-28.22-27.95-28.22h-13.31c-18.46,0-27.68,8.96-27.68,26.89Z"/>
    <path class="st1" d="M1254.35,504.12h-38.33v-186.87h38.33v77.46h73.47v-77.46h38.33v186.87h-38.33v-77.2h-73.47v77.2Z"/>
    <path class="st1" d="M1395.16,455.14v-44.19c0-34.07,18.54-51.11,55.63-51.11h22.89c37.27,0,55.9,17.04,55.9,51.11v44.19c0,34.07-18.63,51.11-55.9,51.11h-22.89c-37.09,0-55.63-17.04-55.63-51.11ZM1493.39,454.07v-41.79c0-7.99-1.86-13.89-5.59-17.7-3.73-3.81-9.68-5.72-17.84-5.72h-15.17c-8.17,0-14.11,1.91-17.84,5.72-3.72,3.82-5.59,9.72-5.59,17.7v41.79c0,7.99,1.82,13.84,5.46,17.57,3.64,3.73,9.62,5.59,17.97,5.59h15.17c8.16,0,14.11-1.87,17.84-5.59,3.73-3.72,5.59-9.58,5.59-17.57Z"/>
    <path class="st1" d="M1592.41,504.12h-36.2v-137.09c19.7-4.79,38.86-7.19,57.5-7.19h8.52c14.38,0,25.2,2.39,32.48,7.19,15.44-4.79,30.08-7.19,43.92-7.19h8.25c17.21,0,30.17,4.26,38.87,12.78,8.69,8.52,13.04,20.86,13.04,37v94.5h-36.2v-91.57c0-14.91-8.52-22.36-25.56-22.36-8.34,0-16.42.89-24.22,2.66,1.77,4.97,2.66,10.3,2.66,15.97v95.3h-35.94v-92.37c0-7.45-1.69-12.91-5.06-16.37-3.37-3.46-8.61-5.19-15.7-5.19h-8.25c-6.22,0-12.25.53-18.1,1.6v112.33Z"/>
    <path class="st1" d="M1912.65,410.95v34.87h-91.31v9.85c0,8.17,1.87,14.07,5.59,17.7,3.73,3.64,9.67,5.46,17.84,5.46h61.49v23.69c-14.91,2.48-32.92,3.73-54.04,3.73h-11.18c-37.27,0-55.9-17.04-55.9-51.11v-44.19c0-34.07,18.63-51.11,55.9-51.11h15.71c37.27,0,55.9,17.04,55.9,51.11ZM1821.34,408.55v11.71h55.1v-9.32c0-15.79-7.37-23.69-22.09-23.69h-11.18c-14.55,0-21.83,7.1-21.83,21.3Z"/>
  </g>
  <g>
    <path class="st0" d="M475.21,163.37v352.74c0,17.43-14.13,31.56-31.56,31.56h-45.82v-159.12h-132.12v50.37h-69.61v-140.47l69.61-30.73v51.35h132.12V108.65l58.57,25.85c11.44,5.05,18.82,16.37,18.82,28.88Z"/>
    <path class="st1" d="M296.86,287.93v-34.35l-41.65-18.38-90.26,39.83v195.05h131.91v-50.37h69.81v127.97H118.92c-17.43,0-31.56-14.13-31.56-31.56V242.97c0-12.5,7.38-23.83,18.82-28.88l136.29-60.15c8.12-3.58,17.37-3.58,25.49,0l79.9,35.26c11.44,5.05,18.82,16.37,18.82,28.88v69.86h-69.81Z"/>
  </g>
</svg>